<svg width="10" height="8" viewBox="0 0 10 8" fill="none" xmlns="http://www.w3.org/2000/svg">
<path fill-rule="evenodd" clip-rule="evenodd" d="M9.06248 8C9.58006 8 9.99998 7.58008 9.99998 7.0625V1.43751C9.99998 0.919936 9.58006 0.500015 9.06248 0.500015H0.937498C0.419921 0.500015 0 0.919936 0 1.43751V7.0625C0 7.58008 0.419921 8 0.937498 8H9.06248ZM4.99999 5.5C4.62294 5.50651 4.10798 5.0708 3.75662 4.77352L3.75662 4.77352C3.68572 4.71353 3.62149 4.65918 3.56639 4.61524C1.66406 3.10549 1.05274 2.60744 0.624999 2.24611V1.43751C0.624999 1.26564 0.765627 1.12501 0.937498 1.12501H9.06248C9.23435 1.12501 9.37498 1.26564 9.37498 1.43751V2.24611C8.94724 2.60744 8.33591 3.10549 6.43359 4.61524C6.37653 4.66048 6.30991 4.71674 6.23639 4.77883L6.23637 4.77885C5.88454 5.07598 5.37479 5.50647 4.99999 5.5ZM0.624999 7.0625C0.624999 7.23437 0.765627 7.375 0.937498 7.375H9.06248C9.23435 7.375 9.37498 7.23437 9.37498 7.0625V3.0586C8.92967 3.42384 8.22655 3.98828 6.82225 5.10352C6.76107 5.15247 6.69341 5.20967 6.62021 5.27155C6.2027 5.62455 5.60489 6.12998 4.99999 6.125C4.3916 6.12833 3.78886 5.61809 3.37601 5.2686C3.30377 5.20745 3.23735 5.15122 3.17773 5.10352C1.77343 3.98828 1.07031 3.42384 0.624999 3.0586V7.0625Z" fill="#0C0D0D"/>
</svg>
