<svg width="10" height="11" viewBox="0 0 10 11" fill="none" xmlns="http://www.w3.org/2000/svg">
<path fill-rule="evenodd" clip-rule="evenodd" d="M9.99998 5.25002C9.99998 7.92579 7.83201 10.0938 5.15624 10.0938C2.48046 10.0938 0.3125 7.92579 0.3125 5.25002C0.3125 2.57424 2.48046 0.406281 5.15624 0.406281C7.83201 0.406281 9.99998 2.57424 9.99998 5.25002ZM5.15624 1.03128C4.63084 1.03128 3.95702 1.8926 3.63086 3.37502H6.68162C6.35546 1.8926 5.68164 1.03128 5.15624 1.03128ZM8.92967 3.37502H7.31835C7.14257 2.50783 6.84763 1.76955 6.47459 1.24418C7.54881 1.59963 8.43163 2.37502 8.92967 3.37502ZM1.38281 3.37502H2.99413C3.16991 2.50588 3.46679 1.76761 3.83788 1.24418C2.76367 1.59963 1.88085 2.37502 1.38281 3.37502ZM3.52147 6.50002C3.46873 6.1133 3.43749 5.69729 3.43749 5.25002C3.43749 4.80275 3.46873 4.38674 3.52147 4.00002H6.791C6.84374 4.38674 6.87498 4.80275 6.87498 5.25002C6.87498 5.69729 6.84374 6.1133 6.791 6.50002H3.52147ZM1.12696 6.50002H2.89453C2.84179 6.09963 2.81249 5.68362 2.81249 5.25002C2.81249 4.81642 2.84374 4.40041 2.89453 4.00002H1.12696C1.00391 4.39456 0.937499 4.81448 0.937499 5.25002C0.937499 5.68556 1.00391 6.10548 1.12696 6.50002ZM9.18552 6.50002H7.41795C7.46874 6.09963 7.49998 5.68362 7.49998 5.25002C7.49998 4.81642 7.47069 4.40041 7.41795 4.00002H9.18552C9.30856 4.39456 9.37498 4.81448 9.37498 5.25002C9.37498 5.68556 9.30856 6.10548 9.18552 6.50002ZM1.38281 7.12501C1.88085 8.12502 2.76367 8.90041 3.83788 9.25586C3.46484 8.73048 3.16991 7.99221 2.99413 7.12501H1.38281ZM5.15624 9.46876C4.63084 9.46876 3.95702 8.60744 3.63086 7.12501H6.68162C6.35546 8.60744 5.68164 9.46876 5.15624 9.46876ZM7.31835 7.12501C7.14257 7.99415 6.84569 8.73243 6.47459 9.25586C7.54881 8.90041 8.43163 8.12502 8.92967 7.12501H7.31835Z" fill="#0C0D0D"/>
</svg>
