<svg width="10" height="11" viewBox="0 0 10 11" fill="none" xmlns="http://www.w3.org/2000/svg">
<path fill-rule="evenodd" clip-rule="evenodd" d="M9.99998 1.31448C9.99998 6.26173 5.99023 10.25 1.06445 10.25C0.779306 10.25 0.533202 10.0547 0.468752 9.77541L0.0156247 7.80861C-0.0507699 7.5215 0.0976596 7.22853 0.369151 7.11134L2.48632 6.20314C2.73437 6.09572 3.02734 6.16799 3.19921 6.37698L4.06055 7.4297C5.41406 6.76564 6.51366 5.66409 7.17772 4.31252L6.12498 3.45121C5.91601 3.27932 5.84374 2.98635 5.95117 2.73832L6.85937 0.619181C6.97655 0.34769 7.27147 0.199261 7.55858 0.265655L9.52732 0.720728C9.80467 0.783232 9.99998 1.02934 9.99998 1.31448ZM0.626948 7.67971L1.07617 9.62501C5.65623 9.61916 9.36913 5.90823 9.37304 1.32816L7.42772 0.878943L6.52928 2.97658L7.95115 4.13869C7.00585 6.15431 5.91014 7.25392 3.88671 8.20314L2.72461 6.78128L0.626948 7.67971Z" fill="#0C0D0D"/>
</svg>
