<svg width="10" height="11" viewBox="0 0 10 11" fill="none" xmlns="http://www.w3.org/2000/svg">
<path fill-rule="evenodd" clip-rule="evenodd" d="M5.15624 10.0937C7.83201 10.0937 9.99998 7.92578 9.99998 5.25C9.99998 2.57423 7.83201 0.406265 5.15624 0.406265C2.48046 0.406265 0.3125 2.57423 0.3125 5.25C0.3125 7.92578 2.48046 10.0937 5.15624 10.0937ZM8.25388 8.10351C8.12107 7.19727 7.34959 6.5 6.40624 6.5C6.23064 6.5 6.09487 6.54283 5.94241 6.59091C5.74722 6.65248 5.52468 6.72266 5.15624 6.72266C4.78818 6.72266 4.56634 6.65262 4.3715 6.59111C4.21894 6.54294 4.08293 6.5 3.90624 6.5C2.96289 6.5 2.19141 7.19727 2.0586 8.10351C1.36524 7.35155 0.937499 6.35157 0.937499 5.25C0.937499 2.92385 2.83008 1.03126 5.15624 1.03126C7.4824 1.03126 9.37498 2.92385 9.37498 5.25C9.37498 6.35157 8.94724 7.35155 8.25388 8.10351ZM6.87498 4.31251C6.87498 5.26171 6.10545 6.03125 5.15624 6.03125C4.20703 6.03125 3.43749 5.26171 3.43749 4.31251C3.43749 3.3633 4.20703 2.59376 5.15624 2.59376C6.10545 2.59376 6.87498 3.3633 6.87498 4.31251ZM5.15624 5.40625C4.55272 5.40625 4.06249 4.91603 4.06249 4.31251C4.06249 3.70898 4.55272 3.21876 5.15624 3.21876C5.75976 3.21876 6.24999 3.70898 6.24999 4.31251C6.24999 4.91603 5.75976 5.40625 5.15624 5.40625ZM2.65624 8.64061C3.35742 9.15819 4.22069 9.46874 5.15624 9.46874C6.09179 9.46874 6.95505 9.15819 7.65623 8.64061V8.375C7.65623 7.68555 7.09568 7.125 6.40624 7.125C6.32832 7.125 6.23802 7.15324 6.12175 7.18962C5.91155 7.25536 5.61647 7.34766 5.15624 7.34766C4.69674 7.34766 4.40034 7.25516 4.18963 7.18939C4.07343 7.15313 3.9833 7.125 3.90624 7.125C3.21679 7.125 2.65624 7.68555 2.65624 8.375V8.64061Z" fill="#0C0D0D"/>
</svg>
