<svg width="27" height="34" viewBox="0 0 27 34" fill="none" xmlns="http://www.w3.org/2000/svg">
<path d="M26 0H19V33L24.0965 32.2214L26 28.7477V0Z" fill="#FBF08A"/>
<path fill-rule="evenodd" clip-rule="evenodd" d="M3.36 0C5.64 0 6.6 1.152 6.6 3.52V4.288C6.6 5.952 6.18 6.976 4.86 7.424C6.3 7.872 6.84 9.088 6.84 10.816V12.16C6.84 14.528 5.76 15.872 3.42 15.872H0V0H3.36ZM2.94 6.72C4.26 6.72 4.92 6.272 4.92 4.608V3.712C4.92 2.304 4.5 1.664 3.3 1.6H1.68V6.72H2.94ZM5.16 12.032C5.16 13.504 4.62 14.208 3.42 14.208L1.62 14.144V8.256H3.06C4.5 8.256 5.16 8.832 5.16 10.624V12.032Z" fill="#0C0D0D"/>
<path d="M12.7201 10.176L9.6001 0H11.3401L13.6201 7.744L15.9601 0H17.5201L14.4001 10.176V15.872H12.7801L12.7201 10.176Z" fill="#0C0D0D"/>
<path d="M0 33.3846V18.1846H1.71818V31.8461H6.075V33.3846H0Z" fill="#0C0D0D"/>
<path d="M14.85 24.9538V26.4922H11.1681V31.9076H15.709V33.4461H9.44995V18.2461H15.709V19.7846H11.1681V24.9538H14.85Z" fill="#0C0D0D"/>
<path fill-rule="evenodd" clip-rule="evenodd" d="M26.4478 21.9999C26.4478 19.6615 25.3433 18.2461 23.0115 18.2461H19.4524V33.4461H23.0115C25.3433 33.4461 26.4478 32.0307 26.4478 29.6922V21.9999ZM24.7297 29.7538C24.7297 31.1692 24.1774 31.9076 22.9501 31.9076H21.0478V19.7846H22.8888C24.116 19.7846 24.7297 20.523 24.7297 21.9384V29.7538Z" fill="#0C0D0D"/>
</svg>
